<svg width="16" height="17" viewBox="0 0 16 17" fill="none" xmlns="http://www.w3.org/2000/svg">
<path d="M12.1905 4.69048H12.9524M3.4286 0.880955H12.5715C14.2546 0.880955 15.6191 2.24542 15.6191 3.92857V13.0714C15.6191 14.7546 14.2546 16.1191 12.5715 16.1191H3.4286C1.74545 16.1191 0.380981 14.7546 0.380981 13.0714V3.92857C0.380981 2.24542 1.74545 0.880955 3.4286 0.880955ZM8.00003 11.5476C6.31688 11.5476 4.95241 10.1832 4.95241 8.5C4.95241 6.81685 6.31688 5.45238 8.00003 5.45238C9.68318 5.45238 11.0476 6.81685 11.0476 8.5C11.0476 10.1832 9.68318 11.5476 8.00003 11.5476Z" stroke="#F4F4F4" stroke-width="1.2"/>
</svg>
