<svg width="16" height="15" viewBox="0 0 16 15" fill="none" xmlns="http://www.w3.org/2000/svg">
<path d="M15.5956 1.02381L16.1942 0.984113C16.1783 0.743428 16.0197 0.535699 15.7918 0.456805C15.5639 0.377912 15.3108 0.443194 15.1495 0.622522L15.5956 1.02381ZM15.1088 4.24438C15.1088 3.91301 14.8402 3.64438 14.5088 3.64438C14.1774 3.64438 13.9088 3.91301 13.9088 4.24438H15.1088ZM8.00003 5.21428V5.81428H8.60003V5.21428H8.00003ZM1.46774 1.02381L2.02964 0.813417C1.94592 0.589814 1.73759 0.43713 1.49915 0.424629C1.26072 0.412127 1.03756 0.542187 0.930915 0.755809L1.46774 1.02381ZM5.71431 10.9286L6.13891 11.3525C6.28574 11.2054 6.34602 10.9929 6.29824 10.7906C6.25046 10.5884 6.10143 10.4253 5.90432 10.3594L5.71431 10.9286ZM0.380981 12.9966V12.3966C0.11666 12.3966 -0.116526 12.5696 -0.193212 12.8225C-0.269898 13.0755 -0.172018 13.3488 0.0478056 13.4956L0.380981 12.9966ZM13.6774 2.08327L13.2323 2.48568L13.7672 2.6765L13.6774 2.08327ZM14.9969 1.0635C15.0528 1.90728 15.0004 2.41234 14.8669 2.78862C14.7379 3.15235 14.5124 3.45468 14.0937 3.8559L14.9239 4.72233C15.4033 4.26301 15.7791 3.80663 15.9979 3.18981C16.2122 2.58553 16.2542 1.8882 16.1942 0.984113L14.9969 1.0635ZM15.1088 5.0374V4.28911H13.9088V5.0374H15.1088ZM15.1088 4.28911V4.24438H13.9088V4.28911H15.1088ZM7.40003 4.45238V5.21428H8.60003V4.45238H7.40003ZM11.2932 0.423806C9.10603 0.423806 7.40003 2.3243 7.40003 4.45238H8.60003C8.60003 2.92428 9.82984 1.62381 11.2932 1.62381V0.423806ZM13.9088 5.0374C13.9088 9.71473 9.97944 13.7571 5.33336 13.7571V14.9571C10.6656 14.9571 15.1088 10.3538 15.1088 5.0374H13.9088ZM0.905833 1.23419C1.51131 2.8513 3.77155 5.81428 8.00003 5.81428V4.61428C4.40387 4.61428 2.51092 2.09881 2.02964 0.813417L0.905833 1.23419ZM0.930915 0.755809C-0.21236 3.04589 -0.417354 5.29957 0.388449 7.22793C1.19427 9.15632 2.96191 10.6422 5.52431 11.4977L5.90432 10.3594C3.57632 9.58225 2.13392 8.29265 1.49567 6.76526C0.857405 5.23783 0.974323 3.35546 2.00456 1.2918L0.930915 0.755809ZM5.28972 10.5046C4.65066 11.1447 2.79524 12.3966 0.380981 12.3966V13.5966C3.18315 13.5966 5.32899 12.1637 6.13891 11.3525L5.28972 10.5046ZM14.1224 1.68086C13.4252 0.909777 12.4156 0.423806 11.2932 0.423806V1.62381C12.062 1.62381 12.7528 1.95534 13.2323 2.48568L14.1224 1.68086ZM13.7672 2.6765C14.6083 2.54912 15.4274 2.10781 16.0416 1.42509L15.1495 0.622522C14.7139 1.10676 14.1432 1.40588 13.5875 1.49003L13.7672 2.6765ZM0.0478056 13.4956C1.80784 14.6708 3.50287 14.9571 5.33336 14.9571V13.7571C3.65167 13.7571 2.21439 13.4993 0.714157 12.4976L0.0478056 13.4956Z" fill="#F4F4F4"/>
</svg>
