<svg width="334" height="138" viewBox="0 0 334 138" fill="none" xmlns="http://www.w3.org/2000/svg">
<path d="M56.2145 26.87C55.3045 21.55 52.3645 16.79 47.4645 12.59C42.2845 8.18 36.5445 6.22 29.4045 6.22C14.5645 6.22 2.73453 18.61 2.73453 32.33C2.73453 40.17 5.11453 46.75 10.7145 52.21C16.0345 57.46 22.8245 59.98 30.0345 59.98C42.2845 59.98 52.9945 52.07 56.2145 39.61H42.3545C39.6245 45.42 35.1445 48.36 29.8945 48.36C21.7045 48.36 15.9645 41.36 15.9645 32.96C15.9645 24.91 21.5645 17.84 29.8245 17.84C35.2145 17.84 40.1145 21.2 42.3545 26.87H56.2145ZM103.397 59V20.15H91.7767V24.28H91.6367C89.3967 20.71 84.9867 18.82 80.2267 18.82C69.0967 18.82 60.7667 28.06 60.7667 39.54C60.7667 51.3 68.7467 60.33 80.2267 60.33C85.3367 60.33 89.9567 58.23 91.6367 54.8H91.7767V59H103.397ZM82.0467 49.48C76.6567 49.48 72.3867 45.07 72.3867 39.68C72.3867 34.08 76.5867 29.67 81.9067 29.67C87.3667 29.67 91.7767 34.08 91.7767 39.54C91.7767 45.14 87.5067 49.48 82.0467 49.48ZM123.424 59V37.58C123.424 33.17 125.664 30.58 132.594 30.51V18.82C128.114 18.82 124.894 20.15 122.864 24.28H122.724V20.15H111.804V59H123.424ZM149.801 59V54.87H149.941C151.691 58.16 156.381 60.33 161.071 60.33C173.041 60.33 180.671 51.3 180.671 39.33C180.671 26.38 171.431 18.82 161.351 18.82C157.291 18.82 153.371 19.94 150.291 23.23V7.2H138.671V59H149.801ZM159.321 49.48C153.931 49.48 149.871 45.21 149.871 39.47C149.871 34.08 154.071 29.67 159.461 29.67C165.061 29.67 169.051 34.36 169.051 39.54C169.051 45.14 164.781 49.48 159.321 49.48ZM227.246 39.4C227.246 27.64 218.006 18.89 206.316 18.89C194.696 18.89 185.386 27.5 185.386 39.54C185.386 51.44 194.486 60.19 206.316 60.19C218.006 60.19 227.246 51.58 227.246 39.4ZM206.316 49.34C201.066 49.34 197.006 44.86 197.006 39.54C197.006 34.22 201.136 29.74 206.246 29.74C211.706 29.74 215.626 34.36 215.626 39.54C215.626 44.72 211.776 49.34 206.316 49.34ZM269.807 59V34.22C269.807 22.74 262.387 18.82 255.387 18.82C250.697 18.82 247.267 20.29 244.817 24.28H244.677V20.15H233.827V59H245.447V37.58C245.447 32.33 247.407 29.74 252.097 29.74C256.367 29.74 258.187 32.19 258.187 37.44V59H269.807Z" fill="#201F3A"/>
<path d="M21.1079 72.01V67.6H15.2979V72.01H21.1079ZM21.1079 93.5V74.075H15.2979V93.5H21.1079ZM43.3025 93.5V81.11C43.3025 75.37 39.5925 73.41 36.0925 73.41C33.7475 73.41 32.0325 74.145 30.8075 76.14H30.7375V74.075H25.3125V93.5H31.1225V82.79C31.1225 80.165 32.1025 78.87 34.4475 78.87C36.5825 78.87 37.4925 80.095 37.4925 82.72V93.5H43.3025Z" fill="#201F3A"/>
<path d="M104.974 87.37C104.064 82.05 101.124 77.29 96.2239 73.09C91.0439 68.68 85.3039 66.72 78.1639 66.72C63.3239 66.72 51.4939 79.11 51.4939 92.83C51.4939 100.67 53.8739 107.25 59.4739 112.71C64.7939 117.96 71.5839 120.48 78.7939 120.48C91.0439 120.48 101.754 112.57 104.974 100.11H91.1139C88.3839 105.92 83.9039 108.86 78.6539 108.86C70.4639 108.86 64.7239 101.86 64.7239 93.46C64.7239 85.41 70.3239 78.34 78.5839 78.34C83.9739 78.34 88.8739 81.7 91.1139 87.37H104.974ZM151.386 99.9C151.386 88.14 142.146 79.39 130.456 79.39C118.836 79.39 109.526 88 109.526 100.04C109.526 111.94 118.626 120.69 130.456 120.69C142.146 120.69 151.386 112.08 151.386 99.9ZM130.456 109.84C125.206 109.84 121.146 105.36 121.146 100.04C121.146 94.72 125.276 90.24 130.386 90.24C135.846 90.24 139.766 94.86 139.766 100.04C139.766 105.22 135.916 109.84 130.456 109.84ZM193.947 119.5V94.72C193.947 83.24 186.527 79.32 179.527 79.32C174.837 79.32 171.407 80.79 168.957 84.78H168.817V80.65H157.967V119.5H169.587V98.08C169.587 92.83 171.547 90.24 176.237 90.24C180.507 90.24 182.327 92.69 182.327 97.94V119.5H193.947ZM216.126 119.5V89.47H221.726V80.65H216.126V67.7H204.506V80.65H198.766V89.47H204.506V119.5H216.126ZM264.211 103.61C264.421 102.56 264.491 101.65 264.491 100.53C264.491 88.49 255.601 79.32 243.981 79.32C232.571 79.32 223.611 88.98 223.611 100.18C223.611 111.73 232.991 120.76 244.191 120.76C252.381 120.76 259.451 115.79 263.161 107.32H251.261C249.371 109.77 247.341 110.96 244.191 110.96C239.431 110.96 235.721 108.02 235.091 103.61H264.211ZM235.231 95.77C236.141 91.64 239.781 89.12 243.981 89.12C248.461 89.12 251.961 91.78 252.871 95.77H235.231ZM308.948 119.5L293.898 98.71L306.988 80.65H293.198L286.968 90.87L280.668 80.65H266.738L279.828 98.71L265.058 119.5H279.058L286.968 107.46L294.738 119.5H308.948ZM327.21 119.5V89.47H332.81V80.65H327.21V67.7H315.59V80.65H309.85V89.47H315.59V119.5H327.21Z" fill="#201F3A"/>
</svg>
