<svg width="433" height="232" viewBox="0 0 433 232" fill="none" xmlns="http://www.w3.org/2000/svg">
<path d="M60.4082 228.395C107.968 228.395 136.343 215.498 155.206 194.378C173.101 174.225 181.968 146.818 181.968 116.186C181.968 80.8784 170.038 50.0853 146.984 29.6103C128.443 13.4883 102.97 3.81502 60.4082 3.81502H0.434197V228.395H60.4082ZM49.284 48.7955H60.7307C89.5891 48.7955 103.777 55.0831 113.933 65.24C125.864 77.4928 131.506 95.7107 131.506 116.186C131.506 134.565 126.831 151.171 116.835 163.423C107.001 175.837 91.5238 183.415 60.7307 183.415H49.284V48.7955ZM325.938 149.075H379.786C372.37 173.419 349.96 185.188 323.843 185.188C283.215 185.188 256.13 158.748 256.13 115.863C256.13 72.1725 285.633 47.5058 321.908 47.5058C347.058 47.5058 368.501 59.5973 374.788 79.105H426.862C417.35 30.2552 374.143 0.590613 322.23 0.590613C252.906 0.590613 206.635 44.4426 206.635 115.541C206.635 185.511 251.616 231.62 321.908 231.62C384.3 231.62 432.828 194.378 432.828 114.735V108.608H325.938V149.075Z" fill="#FF7473"/>
</svg>
