<svg aria-hidden="true" focusable="false" width="47" height="26" viewBox="0 0 47 26" fill="none" xmlns="http://www.w3.org/2000/svg">
<g filter="url(#filter0_d)">
<path d="M6.1875 23C10.7969 23 13.5469 21.75 15.375 19.7031C17.1094 17.75 17.9688 15.0938 17.9688 12.125C17.9688 8.70312 16.8125 5.71875 14.5781 3.73438C12.7812 2.17188 10.3125 1.23438 6.1875 1.23438H0.375V23H6.1875ZM5.10938 5.59375H6.21875C9.01562 5.59375 10.3906 6.20312 11.375 7.1875C12.5312 8.375 13.0781 10.1406 13.0781 12.125C13.0781 13.9062 12.625 15.5156 11.6562 16.7031C10.7031 17.9062 9.20312 18.6406 6.21875 18.6406H5.10938V5.59375ZM33.8419 15.3125H39.0606C38.3419 17.6719 36.17 18.8125 33.6388 18.8125C29.7013 18.8125 27.0763 16.25 27.0763 12.0938C27.0763 7.85938 29.9356 5.46875 33.4513 5.46875C35.8888 5.46875 37.9669 6.64062 38.5763 8.53125H43.6231C42.7013 3.79688 38.5138 0.921875 33.4825 0.921875C26.7638 0.921875 22.2794 5.17188 22.2794 12.0625C22.2794 18.8438 26.6388 23.3125 33.4513 23.3125C39.4981 23.3125 44.2013 19.7031 44.2013 11.9844V11.3906H33.8419V15.3125Z" fill="#484848"/>
</g>
<defs>
<filter id="filter0_d" x="0.375" y="0.921875" width="45.8262" height="24.3906" filterUnits="userSpaceOnUse" color-interpolation-filters="sRGB">
<feFlood flood-opacity="0" result="BackgroundImageFix"/>
<feColorMatrix in="SourceAlpha" type="matrix" values="0 0 0 0 0 0 0 0 0 0 0 0 0 0 0 0 0 0 127 0"/>
<feOffset dx="2" dy="2"/>
<feColorMatrix type="matrix" values="0 0 0 0 0.956863 0 0 0 0 0.956863 0 0 0 0 0.956863 0 0 0 1 0"/>
<feBlend mode="normal" in2="BackgroundImageFix" result="effect1_dropShadow"/>
<feBlend mode="normal" in="SourceGraphic" in2="effect1_dropShadow" result="shape"/>
</filter>
</defs>
</svg>
