<svg width="47" height="38" viewBox="0 0 47 38" fill="none" xmlns="http://www.w3.org/2000/svg">
<rect width="47" height="38" fill="#173561"/>
<path d="M10.8234 17H9.3984V12.0197H6.03022V17H4.60522V7.05379H6.03022V11.7894L9.22568 8.66591V7.05379H10.6507L10.6363 8.80985L8.66431 10.7242V10.9114H9.57113L10.8234 12.1492V17ZM15.9788 17H14.5682L13.3303 15.7477V6.86667L14.7553 5.45606V15.7477H15.9788V17ZM18.7614 8.30606H17.3364V6.88106H18.7614V8.30606ZM18.7614 17H17.3364V10.6235L18.7614 9.18409V17ZM29.7654 17H28.3404V10.7818H26.2101V17H24.7851V10.7818H22.6692V17H21.2442V9.52954H22.6692V10.6091L23.7199 9.52954H25.1449L26.023 10.4364L26.9154 9.52954H28.5131L29.7654 10.7818V17ZM36.9593 17H35.5343V15.9348L34.4692 17H33.0442L31.8063 15.7477V13.272L33.0442 12.0197H35.3904L34.2101 13.2576H33.2169V15.7477H35.5343V10.7818H31.6192L32.6843 9.52954H35.7214L36.9593 10.7818V17ZM43.0048 9.52954L41.7525 10.7818H40.8601V15.7477H42.6305V17H40.6873L39.4351 15.7477V10.7818H37.6646L38.9169 9.52954H39.4351V8.47879L40.8601 7.05379V9.52954H43.0048Z" fill="#FFFDF1"/>
<path d="M10.2977 21.8363H5.40379V24.3121H8.7L9.92349 25.55V29.278L8.7 30.5303H5.21667L3.97879 29.278V28.2848L5.40379 26.9174V29.278H8.49849V25.55H5.21667L3.97879 24.3121V21.8363L5.21667 20.5841H9.04545L10.2977 21.8363ZM16.1224 23.0598L14.8702 24.3121H13.9777V29.278H15.7482V30.5303H13.805L12.5527 29.278V24.3121H10.7823L12.0346 23.0598H12.5527V22.0091L13.9777 20.5841V23.0598H16.1224ZM22.4723 30.5303H21.0617V29.4651L19.9965 30.5303H18.5715L17.3193 29.278V23.0598H18.7443V29.278H21.0617V23.0598H22.4723V30.5303ZM30.1934 30.5303H28.7828V29.4651L27.7464 30.5303H26.2927L25.0548 29.278V24.3121L26.2927 23.0598H28.7828V20.5697L30.1934 19.1591V30.5303ZM28.7828 29.278V23.2325L27.6889 24.3121H26.4798V29.278H28.7828ZM34.3602 21.8363H32.9352V20.4113H34.3602V21.8363ZM34.3602 30.5303H32.9352V24.1538L34.3602 22.7144V30.5303ZM42.068 29.278L40.8301 30.5303H38.1672L36.9293 29.278V24.3121L38.1672 23.0598H40.8301L42.068 24.3121V29.278ZM40.6574 29.278V24.3121H38.3543V29.278H40.6574Z" fill="#FFFDF1"/>
</svg>
